<svg width="70" height="70" viewBox="0 0 70 70" fill="none" xmlns="http://www.w3.org/2000/svg">
<rect width="70" height="70" rx="10" fill="url(#paint0_linear_1_322)"/>
<mask id="mask0_1_322" style="mask-type:alpha" maskUnits="userSpaceOnUse" x="0" y="0" width="70" height="70">
<rect width="70" height="70" rx="10" fill="url(#paint1_linear_1_322)"/>
</mask>
<g mask="url(#mask0_1_322)">
<path d="M4.45 44.241C-8.79286 51.3121 -11 60.9086 -11 60.9086V70H92V55.8578C92 55.8578 83.9071 30.0988 63.3071 44.241C42.7071 58.3832 47.8571 45.2511 33.8786 46.7664C19.9 48.2816 17.6929 37.1699 4.45 44.241Z" fill="#C1DFFF"/>
</g>
<path d="M35.3919 10.2389C20.0536 10.591 13.6757 19.6133 12.4041 24.0805C16.1995 30.5758 27.8108 31.0584 33.142 30.4877C36.2723 32.6887 40.6742 32.9332 41.9459 32.0529C42.9632 31.3485 41.0981 29.5095 40.0384 28.678C46.3967 25.3032 52.4127 25.6456 54.7603 31.0257C56.6385 35.3298 52.3801 38.2319 50.0161 39.1448C39.1384 39.6144 37.1037 40.873 37.4461 41.4436C38.1979 44.2022 44.587 45.687 46.788 46.7748C50.1921 48.4574 48.8585 51.5518 47.7662 52.8886C41.7502 58.5133 41.8154 59.0513 42.0437 59.5404C42.9828 61.9272 48.7933 58.1872 51.5812 56.0189C60.6589 48.0759 61.4937 38.1666 60.7763 34.2049C60.6198 22.936 51.9725 15.5864 47.6684 13.3202C50.0552 12.0681 50.391 11.266 50.2606 11.0214C45.8098 7.59773 40.7231 10.728 39.0602 10.4345C37.7298 10.1998 36.0603 10.2063 35.3919 10.2389Z" fill="#52A5FC"/>
<circle cx="24.3377" cy="18.7973" r="1.76077" fill="white"/>
<path d="M22.284 47.5955C36.018 42.6653 43.2339 47.6281 45.1251 50.7258C44.8903 53.7777 39.3863 56.4646 36.6636 57.4265C35.7636 58.6786 34.0387 59.872 33.2888 60.3122C26.8326 63.1685 28.5771 60.4263 30.2563 58.6981C24.5045 58.9329 19.5124 56.0896 17.7353 54.6386C11.0444 49.7084 9.43687 39.6068 9.46948 35.1723C9.71403 25.5859 12.9421 32.9713 13.3823 34.4386C13.7325 35.6059 17.1158 35.4331 18.9092 35.1723C23.8393 34.8201 21.5503 37.3733 19.7896 38.6938C13.0204 45.7369 18.632 47.5629 22.284 47.5955Z" fill="#52A5FC"/>
<circle cx="36.6636" cy="49.9043" r="1.17385" fill="white"/>
<defs>
<linearGradient id="paint0_linear_1_322" x1="-1.81679" y1="1.81679" x2="67.542" y2="64.9237" gradientUnits="userSpaceOnUse">
<stop stop-color="white"/>
<stop offset="1" stop-color="#D8EBFF"/>
</linearGradient>
<linearGradient id="paint1_linear_1_322" x1="-1.81679" y1="1.81679" x2="67.542" y2="64.9237" gradientUnits="userSpaceOnUse">
<stop stop-color="white"/>
<stop offset="1" stop-color="#D8EBFF"/>
</linearGradient>
</defs>
</svg>
